<svg width="101" height="76" viewBox="0 0 101 76" fill="none" xmlns="http://www.w3.org/2000/svg">
<path d="M71.45 63.38C71.14 63.38 71.0701 63.3199 71.0601 63.3099C71.0323 63.2119 71.0323 63.1081 71.0601 63.01C71.0747 62.9072 71.0747 62.8028 71.0601 62.7V62.6C71.1713 61.176 70.7533 59.7612 69.886 58.6263C69.0187 57.4915 67.7633 56.7165 66.3601 56.45C66.1201 56.39 66.1201 56.38 66.1101 56.23C66.0101 54.8 65.89 53.35 65.78 51.95L65.6799 50.8C65.6199 50.08 65.46 47.99 65.24 45.34C64.77 39.48 64.0599 30.63 63.8799 28.54C63.8799 28.37 63.8799 28.33 63.8799 28.33C63.8799 28.33 63.88 28.33 64.04 28.26C64.7246 28.1275 65.3371 27.7495 65.7625 27.197C66.1878 26.6446 66.3969 25.9557 66.3501 25.26V23.97C66.3501 23.35 66.3501 22.6999 66.3501 22.0699C66.4238 21.4681 66.3301 20.8577 66.0796 20.3055C65.8291 19.7534 65.4313 19.2809 64.9299 18.9399L65.9299 17.9399C67.0399 16.8399 68.0799 15.8 69.1599 14.75C69.4011 14.5243 69.5911 14.2495 69.717 13.9442C69.843 13.6389 69.9018 13.31 69.8899 12.98C69.8899 8.89998 69.8899 5.27 69.8899 1.87C69.9206 1.52117 69.8593 1.17042 69.7119 0.852783C69.5645 0.535146 69.3363 0.261691 69.05 0.0599365L68.97 0H60.3501H60.28C59.979 0.205307 59.7397 0.488986 59.5881 0.820312C59.4366 1.15164 59.3784 1.51803 59.4199 1.88C59.4199 2.99 59.4199 4.10995 59.4199 5.19995C59.4199 6.28995 59.4199 7.52994 59.4199 8.68994C59.4199 8.96994 59.4199 9.03004 59.3699 9.04004C59.3011 9.05827 59.2287 9.05827 59.1599 9.04004H59.0601C58.7201 9.04004 58.36 9.04004 58 9.04004H56.9199H56.8101C56.6301 9.04004 56.5801 9.04004 56.5701 9.04004C56.5601 9.04004 56.51 8.94993 56.51 8.67993C56.51 7.48993 56.51 6.29 56.51 5.12C56.51 3.95 56.51 2.91005 56.51 1.80005C56.5415 1.44859 56.475 1.09526 56.3179 0.779297C56.1608 0.463332 55.9191 0.197044 55.6199 0.0100098H55.54H45.48L45.3999 0.0699463C45.1091 0.283238 44.8795 0.56913 44.7339 0.899048C44.5882 1.22897 44.5317 1.59135 44.5701 1.94995C44.5701 3.02995 44.5701 4.10995 44.5701 5.19995C44.5701 6.28995 44.5701 7.57001 44.5701 8.76001C44.5701 9.02001 44.5701 9.07997 44.5701 9.08997C44.5701 9.09997 44.5201 9.08997 44.3401 9.08997H44.24C43.8867 9.08997 43.5266 9.08997 43.1599 9.08997H42.04H41.99C41.83 9.08997 41.79 9.08997 41.79 9.08997C41.79 9.08997 41.74 9.03004 41.74 8.79004C41.74 7.68004 41.74 6.56997 41.74 5.46997C41.74 4.36997 41.74 3.04997 41.74 1.83997C41.7767 1.48566 41.7105 1.12832 41.5491 0.810791C41.3876 0.493264 41.138 0.229139 40.8301 0.0500488H40.76H32.29L32.21 0.119995C31.9282 0.342153 31.7072 0.631872 31.5674 0.96228C31.4275 1.29269 31.3733 1.6531 31.4099 2.01001C31.4099 5.71001 31.4099 9.40001 31.4099 13.01C31.392 13.3631 31.4528 13.7158 31.5876 14.0426C31.7225 14.3694 31.9282 14.6623 32.1899 14.9C33.2599 15.9 34.2799 16.9 35.3699 18.02L36.3699 19.02C35.9483 19.2691 35.598 19.6226 35.3528 20.0465C35.1076 20.4704 34.9758 20.9503 34.97 21.4399V21.97C34.97 23.18 34.97 24.43 34.97 25.66C34.9604 26.2781 35.1626 26.8808 35.5427 27.3683C35.9229 27.8557 36.4583 28.1986 37.0601 28.34C37.3401 28.41 37.3501 28.45 37.3201 28.71C37.1601 30.57 37.0101 32.4699 36.8601 34.3099L36.3301 40.8C35.9367 45.6867 35.5432 50.5766 35.1499 55.47V55.52C35.1653 55.8176 35.1142 56.1148 35 56.39C34.91 56.51 34.6399 56.59 34.1899 56.74C33.9956 56.8014 33.8051 56.8749 33.6199 56.96C32.4671 57.4647 31.5065 58.3255 30.8784 59.416C30.2504 60.5066 29.9879 61.7696 30.1299 63.02C30.1299 63.32 30.1301 63.4099 30.0801 63.4399C30.0301 63.4699 29.9699 63.51 29.6599 63.51C28.6257 63.4617 27.6098 63.7943 26.8044 64.4448C25.9991 65.0954 25.4602 66.0188 25.29 67.04C25.0351 68.5561 25.0351 70.104 25.29 71.62C25.57 73.34 26.73 74.51 28.74 75.11H72.74L72.8201 74.98H72.8799H73.05C73.7554 74.7828 74.3952 74.4007 74.9033 73.8733C75.4114 73.3459 75.7692 72.6922 75.9399 71.98C76.2899 70.2744 76.2899 68.5155 75.9399 66.8099C75.7565 65.7801 75.1936 64.8565 74.3623 64.2214C73.531 63.5864 72.4918 63.2862 71.45 63.38ZM34.52 13.15C34.4242 13.051 34.3499 12.9333 34.3018 12.8042C34.2536 12.6751 34.2325 12.5376 34.24 12.4C34.24 9.62002 34.24 6.39993 34.24 3.17993C34.24 2.89993 34.24 2.83996 34.29 2.82996C34.34 2.81996 34.29 2.82996 34.54 2.82996H34.6001C35.2401 2.82996 35.9001 2.82996 36.6001 2.82996H38.6001H38.6499C38.8399 2.82996 38.8799 2.82996 38.8799 2.82996C38.8799 2.82996 38.8799 2.88001 38.8799 3.14001C38.8799 5.04001 38.8799 6.95995 38.8799 8.81995V10.12C38.8799 11.43 39.38 11.92 40.73 11.92H45.45C46.96 11.92 47.3999 11.48 47.3999 9.92004V8.35999C47.3999 6.65999 47.3999 4.89003 47.3999 3.16003C47.3999 2.90003 47.3999 2.83995 47.3999 2.81995C47.4918 2.79708 47.588 2.79708 47.6799 2.81995H50.4199H53.28C53.5 2.81995 53.54 2.81995 53.54 2.81995C53.54 2.81995 53.54 2.81999 53.54 3.10999C53.54 5.03999 53.54 7.00002 53.54 8.90002V10.16C53.54 11.39 54.05 11.9 55.29 11.9H60.29C61.54 11.9 62.03 11.41 62.03 10.15V9.04004C62.03 7.14004 62.03 5.18 62.03 3.25C62.03 2.96 62.0301 2.85996 62.0901 2.82996C62.1501 2.79996 62.1699 2.77002 62.3799 2.77002H62.46C63.03 2.77002 63.6401 2.77002 64.3301 2.77002C65.0201 2.77002 65.8 2.77002 66.54 2.77002C66.75 2.77002 66.79 2.77002 66.79 2.77002C66.79 2.77002 66.79 2.77001 66.79 3.01001C66.79 6.33001 66.79 9.64995 66.79 12.45C66.7951 12.5656 66.7734 12.6808 66.7266 12.7866C66.6797 12.8924 66.609 12.986 66.52 13.0599C64.88 14.6899 63.1299 16.43 61.4399 18.15C61.3461 18.2494 61.2303 18.3256 61.1018 18.3724C60.9734 18.4193 60.8358 18.4356 60.7 18.42H40C39.8676 18.427 39.7353 18.4045 39.6125 18.3544C39.4898 18.3042 39.3797 18.2277 39.29 18.13C37.9 16.49 36.2 14.8 34.52 13.15ZM63.01 25.55H44.4299H38.3601C38.173 25.5721 37.9836 25.5335 37.8201 25.4399C37.7378 25.2871 37.7095 25.1109 37.74 24.9399C37.8 23.8499 37.74 22.75 37.74 21.72C37.7176 21.5966 37.7389 21.4694 37.8 21.36C37.8 21.36 37.9299 21.28 38.1599 21.28H62.77C62.9958 21.2512 63.2242 21.2512 63.45 21.28C63.4793 21.5158 63.4793 21.7542 63.45 21.99V22.91C63.45 23.59 63.45 24.29 63.45 24.98C63.4748 25.125 63.4463 25.2743 63.3699 25.4C63.3999 25.49 63.25 25.55 62.99 25.55H63.01ZM63.27 56.3C63.27 56.3 63.2099 56.36 62.8799 56.36H50.27H38.27C37.99 56.36 37.9299 56.36 37.9199 56.36C37.9099 56.36 37.9199 56.3 37.9199 56.02C38.5999 47.91 39.2999 39.22 40.1399 28.66C40.1399 28.38 40.1399 28.38 40.4199 28.38H60.8401C61.0801 28.38 61.0801 28.38 61.1001 28.61C61.1701 29.66 61.2601 30.73 61.3501 31.75L61.47 33.25L61.5801 34.59C61.9501 39.11 63.0601 52.88 63.3301 55.91C63.3201 56.2 63.29 56.28 63.27 56.3ZM32.8999 62.87C32.9099 62.6801 32.9099 62.4899 32.8999 62.3C32.8947 61.964 32.9283 61.6284 33 61.3C33.1694 60.669 33.5448 60.1127 34.0667 59.7195C34.5885 59.3263 35.2266 59.1188 35.8799 59.13H65.22C66.0156 59.13 66.7787 59.4461 67.3413 60.0087C67.9039 60.5713 68.22 61.3344 68.22 62.13C68.2857 62.5097 68.2651 62.8993 68.1599 63.27C67.7875 63.382 67.3961 63.416 67.01 63.37H42.5801C40.0601 63.37 36.7399 63.37 33.3799 63.37C33.0499 63.37 32.9499 63.31 32.9199 63.28C32.8899 63.25 32.8799 63.16 32.8999 62.87ZM73.22 70.66C73.223 71.0504 73.0746 71.4267 72.8062 71.7101C72.5377 71.9935 72.17 72.1618 71.78 72.1799H29.72C29.4743 72.2116 29.2247 72.1862 28.9905 72.1056C28.7563 72.025 28.5438 71.8914 28.3696 71.7153C28.1955 71.5392 28.0643 71.3253 27.9863 71.0902C27.9083 70.8551 27.8856 70.6053 27.9199 70.36V70.26C27.9199 69.46 27.9199 68.64 27.9199 67.83C27.9062 67.6182 27.9363 67.4058 28.0081 67.2061C28.0798 67.0063 28.1918 66.8234 28.3372 66.6687C28.4825 66.514 28.6579 66.3908 28.8528 66.3068C29.0477 66.2227 29.2577 66.1795 29.47 66.1799H71.05C71.3464 66.1595 71.6436 66.1595 71.9399 66.1799C72.2933 66.2244 72.6179 66.3983 72.8506 66.668C73.0833 66.9376 73.2077 67.2839 73.2 67.64C73.24 68.68 73.24 69.68 73.22 70.66ZM20.3601 38.66L24.8 60.66C25.2543 60.3662 25.7366 60.1183 26.24 59.92C26.3898 59.2529 26.6075 58.6027 26.8899 57.98L22.99 38.6799H23.3201C24.1157 38.6799 24.8788 38.3639 25.4414 37.8013C26.004 37.2387 26.3201 36.4756 26.3201 35.6799V33.9399C26.3201 33.1443 26.004 32.3813 25.4414 31.8187C24.8788 31.2561 24.1157 30.9399 23.3201 30.9399H22.9199C24.2636 29.6591 25.1926 28.0051 25.5874 26.1913C25.9822 24.3774 25.8246 22.4869 25.1348 20.7635C24.4449 19.0402 23.2546 17.5629 21.7173 16.5223C20.18 15.4818 18.3663 14.9257 16.51 14.9257C14.6537 14.9257 12.84 15.4818 11.3027 16.5223C9.76546 17.5629 8.57507 19.0402 7.88525 20.7635C7.19544 22.4869 7.03761 24.3774 7.43237 26.1913C7.82713 28.0051 8.75646 29.6591 10.1001 30.9399H9.70996C8.91431 30.9399 8.15123 31.2561 7.58862 31.8187C7.02601 32.3813 6.70996 33.1443 6.70996 33.9399V35.6799C6.70996 36.4756 7.02601 37.2387 7.58862 37.8013C8.15123 38.3639 8.91431 38.6799 9.70996 38.6799H10.05L5.36011 63.45H3.28003C2.84929 63.45 2.42285 63.5349 2.0249 63.6997C1.62695 63.8645 1.26527 64.1061 0.960693 64.4106C0.656117 64.7152 0.414591 65.0768 0.249756 65.4747C0.0849204 65.8727 0 66.2992 0 66.73V71.49C0 71.9207 0.0849204 72.3473 0.249756 72.7452C0.414591 73.1432 0.656117 73.5048 0.960693 73.8093C1.26527 74.1139 1.62695 74.3554 2.0249 74.5203C2.42285 74.6851 2.84929 74.77 3.28003 74.77H22.04C21.6077 73.9639 21.3103 73.0923 21.1599 72.1899H3.28003C3.09438 72.1899 2.91619 72.1163 2.78491 71.985C2.65364 71.8537 2.58008 71.6756 2.58008 71.49V66.7C2.58008 66.5143 2.65364 66.3362 2.78491 66.205C2.91619 66.0737 3.09438 66 3.28003 66H21.1899C21.3814 64.9929 21.7578 64.03 22.3 63.16H7.98999L12.6399 38.65L20.3601 38.66ZM9.80005 24.21C9.80005 22.8828 10.1936 21.5855 10.9309 20.4821C11.6682 19.3786 12.716 18.5186 13.9421 18.0107C15.1682 17.5029 16.5175 17.37 17.8191 17.6289C19.1207 17.8878 20.3162 18.5269 21.2546 19.4653C22.193 20.4037 22.8322 21.5993 23.0911 22.9009C23.35 24.2025 23.2171 25.5517 22.7092 26.7778C22.2014 28.0039 21.3412 29.0519 20.2378 29.7892C19.1343 30.5265 17.8371 30.92 16.51 30.92C14.7295 30.9174 13.0227 30.2082 11.7646 28.9482C10.5066 27.6883 9.80005 25.9805 9.80005 24.2V24.21ZM9.70996 36.08C9.59857 36.08 9.49185 36.0358 9.41309 35.957C9.33432 35.8783 9.29004 35.7714 9.29004 35.66V33.92C9.29004 33.8087 9.33432 33.7018 9.41309 33.623C9.49185 33.5443 9.59857 33.5 9.70996 33.5H23.3201C23.4315 33.5 23.5382 33.5443 23.6169 33.623C23.6957 33.7018 23.74 33.8087 23.74 33.92V35.66C23.74 35.7714 23.6957 35.8783 23.6169 35.957C23.5382 36.0358 23.4315 36.08 23.3201 36.08H9.70996ZM97.3501 63.4299H95.0901L90.0901 38.66H90.4099C91.2056 38.66 91.9686 38.3439 92.5312 37.7812C93.0939 37.2186 93.4099 36.4557 93.4099 35.66V33.92C93.4099 33.1244 93.0939 32.3613 92.5312 31.7987C91.9686 31.2361 91.2056 30.92 90.4099 30.92H89.99C91.3336 29.6392 92.2627 27.9851 92.6575 26.1713C93.0522 24.3574 92.8947 22.4669 92.2048 20.7435C91.515 19.0201 90.3246 17.5428 88.7874 16.5023C87.2501 15.4618 85.4364 14.9058 83.5801 14.9058C81.7238 14.9058 79.9098 15.4618 78.3726 16.5023C76.8353 17.5428 75.6451 19.0201 74.9553 20.7435C74.2655 22.4669 74.1077 24.3574 74.5024 26.1713C74.8972 27.9851 75.8263 29.6392 77.1699 30.92H76.77C75.9744 30.92 75.2113 31.2361 74.6487 31.7987C74.0861 32.3613 73.77 33.1244 73.77 33.92V35.66C73.77 36.4557 74.0861 37.2186 74.6487 37.7812C75.2113 38.3439 75.9744 38.66 76.77 38.66H77.1199L73.6699 56.9C74.2353 57.8268 74.6441 58.8403 74.8799 59.9C75.1399 60.0067 75.3999 60.1267 75.6599 60.26L79.75 38.67H87.4299L92.3799 63.1799H78.8501C79.3304 63.9791 79.6687 64.8555 79.8501 65.77C79.8716 65.8523 79.8881 65.9358 79.8999 66.02H97.3C97.4857 66.02 97.6636 66.0937 97.7949 66.225C97.9262 66.3563 98 66.5343 98 66.72V71.49C98 71.6756 97.9262 71.8537 97.7949 71.985C97.6636 72.1163 97.4857 72.1899 97.3 72.1899H79.99C79.99 72.3299 79.9899 72.47 79.9199 72.6C79.7651 73.3598 79.4953 74.0915 79.1199 74.77H97.3601C98.23 74.77 99.0641 74.4244 99.6792 73.8093C100.294 73.1942 100.64 72.3599 100.64 71.49V66.7C100.64 66.2684 100.555 65.8411 100.389 65.4425C100.224 65.0439 99.9814 64.6819 99.6758 64.3772C99.3701 64.0725 99.0073 63.831 98.6082 63.6667C98.2091 63.5025 97.7817 63.4187 97.3501 63.42V63.4299ZM76.8899 24.21C76.8899 22.8828 77.2834 21.5855 78.0208 20.4821C78.7581 19.3786 79.8061 18.5186 81.0322 18.0107C82.2583 17.5029 83.6073 17.37 84.9089 17.6289C86.2105 17.8878 87.4063 18.5269 88.3447 19.4653C89.2831 20.4037 89.9222 21.5993 90.1812 22.9009C90.4401 24.2025 90.3072 25.5517 89.7993 26.7778C89.2915 28.0039 88.4313 29.0519 87.3279 29.7892C86.2244 30.5265 84.9272 30.92 83.6001 30.92C81.8196 30.9174 80.1128 30.2082 78.8547 28.9482C77.5967 27.6883 76.8899 25.9805 76.8899 24.2V24.21ZM76.79 36.08C76.6786 36.08 76.5717 36.0358 76.4929 35.957C76.4142 35.8783 76.3699 35.7714 76.3699 35.66V33.92C76.3699 33.8087 76.4142 33.7018 76.4929 33.623C76.5717 33.5443 76.6786 33.5 76.79 33.5H90.3999C90.5113 33.5 90.6183 33.5443 90.697 33.623C90.7758 33.7018 90.8201 33.8087 90.8201 33.92V35.66C90.8201 35.7714 90.7758 35.8783 90.697 35.957C90.6183 36.0358 90.5113 36.08 90.3999 36.08H76.79Z" fill="#5C5C5C"/>
</svg>
