<svg width="91" height="91" viewBox="0 0 91 91" fill="none" xmlns="http://www.w3.org/2000/svg">
<path d="M46.3 56.7112C46.2118 56.5103 46.0819 56.3303 45.9189 56.1833C45.756 56.0364 45.5639 55.9256 45.355 55.8585C45.1461 55.7914 44.9253 55.7695 44.7073 55.7941C44.4892 55.8187 44.2788 55.8893 44.0901 56.0012C43.0901 56.3912 42.0901 56.8012 41.0901 57.1012C40.6751 57.2136 40.3052 57.4519 40.0312 57.7832C39.7573 58.1145 39.5926 58.5225 39.5601 58.9512C39.1401 61.2212 38.6699 63.4812 38.1899 65.7412C38.174 65.948 38.1162 66.1494 38.02 66.3331C37.9238 66.5169 37.7912 66.6792 37.6304 66.8102C37.4695 66.9411 37.2837 67.038 37.0842 67.0948C36.8848 67.1517 36.6757 67.1675 36.47 67.1411C35.32 67.1411 34.18 67.1411 33.04 67.1411C31.9 67.1411 31.31 66.7611 31.04 65.5211C30.58 63.2811 30.1099 61.0512 29.6899 58.8112C29.6455 58.4164 29.4791 58.0453 29.2139 57.7495C28.9486 57.4538 28.5976 57.2481 28.21 57.1611C26.7661 56.7694 25.3783 56.1948 24.0801 55.4512C23.6898 55.1918 23.2265 55.0645 22.7585 55.0879C22.2906 55.1113 21.8424 55.2842 21.48 55.5812C19.64 56.8812 17.7501 58.1112 15.8601 59.3412C15.6995 59.4971 15.5069 59.6161 15.2957 59.6899C15.0844 59.7638 14.8595 59.7907 14.6367 59.7688C14.414 59.7469 14.1987 59.6768 14.0059 59.5632C13.813 59.4497 13.6472 59.2954 13.52 59.1112C12.77 58.3812 12.03 57.6312 11.29 56.8812C10.23 55.8212 10.17 55.2711 10.98 54.0411C12.21 52.1911 13.4399 50.3312 14.6899 48.4912C14.9284 48.1909 15.069 47.8244 15.0923 47.4417C15.1155 47.0589 15.0205 46.6782 14.8201 46.3512C14.043 44.941 13.4258 43.4483 12.98 41.9011C12.8768 41.5201 12.6631 41.1783 12.366 40.9185C12.0688 40.6587 11.7014 40.4926 11.3101 40.4412C9.01006 40.0112 6.72018 39.5412 4.43018 39.0612C4.22918 39.0565 4.03143 39.009 3.85034 38.9216C3.66925 38.8343 3.50893 38.7092 3.38013 38.5548C3.25133 38.4004 3.15699 38.2204 3.10352 38.0266C3.05004 37.8328 3.03865 37.6297 3.07007 37.4312C3.07007 36.2312 3.07007 35.0312 3.07007 33.8312C3.07007 32.5812 3.43017 32.1812 4.67017 31.9312C6.93017 31.4712 9.19996 31.0012 11.46 30.5612C11.8261 30.5156 12.1693 30.3574 12.4417 30.1084C12.714 29.8594 12.902 29.5318 12.98 29.1711C13.4009 27.6486 14.0089 26.1841 14.79 24.8112C15.0059 24.4622 15.1092 24.0553 15.0859 23.6456C15.0627 23.236 14.9141 22.8434 14.6602 22.5211C13.4702 20.7811 12.3101 19.0212 11.1501 17.2612C10.1501 15.7212 10.1499 15.2612 11.4399 14.0012L13.1802 12.2711C14.3502 11.1011 14.8702 11.0412 16.1802 11.9412C18.0002 13.1612 19.8401 14.3612 21.6501 15.6012C21.9513 15.8393 22.3189 15.9778 22.7024 15.9976C23.0858 16.0173 23.466 15.9172 23.79 15.7112C25.1974 14.9282 26.6906 14.3108 28.24 13.8712C28.5975 13.7887 28.9213 13.5988 29.168 13.3271C29.4146 13.0555 29.5724 12.715 29.6201 12.3512C30.0601 10.0612 30.54 7.77119 31 5.47119C31.23 4.35119 31.66 3.97118 32.8 3.96118C33.94 3.95118 35.2001 3.96118 36.4001 3.96118C37.6001 3.96118 37.9101 4.29113 38.1401 5.41113C38.6001 7.64113 39.07 9.87122 39.48 12.1212C39.5173 12.5467 39.6899 12.949 39.9724 13.2693C40.2549 13.5896 40.6326 13.8109 41.05 13.9011C42.4889 14.2938 43.8731 14.865 45.1702 15.6012C45.563 15.858 46.0281 15.9811 46.4966 15.9523C46.965 15.9234 47.4116 15.7441 47.77 15.4412C49.5 14.2312 51.27 13.0911 53.03 11.9211C54.35 11.0411 54.86 11.1012 56.03 12.2412L58.0801 14.2412C59.0801 15.2412 59.0801 15.7012 58.3301 16.8512C57.1201 18.6912 55.9302 20.5312 54.6702 22.3312C54.3753 22.6774 54.1993 23.1093 54.1687 23.5631C54.1381 24.0169 54.2543 24.4685 54.5 24.8512C55.2568 26.1724 55.8448 27.5834 56.25 29.0511C56.3383 29.4381 56.5444 29.7883 56.8398 30.0533C57.1353 30.3184 57.5059 30.4853 57.9001 30.5311C60.1401 30.9511 62.3701 31.4212 64.6101 31.8812C65.8501 32.1312 66.22 32.5812 66.23 33.8812C66.23 34.8812 66.23 35.8111 66.23 36.7811C66.23 38.4811 65.93 38.8411 64.23 39.1711L57.8601 40.4312C57.481 40.4749 57.1245 40.6349 56.8398 40.8892C56.5552 41.1434 56.3562 41.4794 56.27 41.8512C55.9345 42.9743 55.5236 44.0734 55.04 45.1411C54.9373 45.3192 54.8726 45.5166 54.8499 45.7209C54.8271 45.9253 54.8467 46.1321 54.9077 46.3284C54.9688 46.5247 55.07 46.7062 55.2046 46.8616C55.3392 47.0169 55.5043 47.1428 55.6899 47.2312C55.8828 47.3236 56.0929 47.3745 56.3066 47.3807C56.5204 47.3869 56.733 47.3482 56.9309 47.2672C57.1288 47.1862 57.3073 47.0646 57.4553 46.9103C57.6033 46.7559 57.7174 46.5723 57.79 46.3712C58.1689 45.6081 58.5028 44.8233 58.79 44.0211C58.8558 43.7829 58.9924 43.5702 59.1816 43.4113C59.3709 43.2523 59.6041 43.1547 59.8501 43.1312C61.8501 42.7612 63.85 42.3811 65.78 41.9211C66.6546 41.7632 67.4564 41.3313 68.0693 40.6877C68.6823 40.0442 69.0747 39.2224 69.1899 38.3412C69.46 36.5144 69.46 34.6579 69.1899 32.8312C69.0881 31.8589 68.6619 30.9492 67.9797 30.2489C67.2976 29.5486 66.3995 29.0985 65.4302 28.9712C63.6202 28.6012 61.82 28.2211 60.01 27.8911C59.6913 27.8747 59.3869 27.7545 59.1431 27.5486C58.8993 27.3427 58.7297 27.0627 58.6602 26.7512C58.4027 25.9665 58.0677 25.2095 57.6602 24.4912C57.5247 24.2707 57.4641 24.0123 57.4875 23.7546C57.511 23.4969 57.6171 23.2536 57.79 23.0612C58.87 21.4912 59.92 19.9012 60.96 18.3112C61.6327 17.421 61.9473 16.3111 61.8418 15.2003C61.7363 14.0896 61.2184 13.0587 60.3901 12.3112C59.5101 11.4112 58.62 10.5211 57.71 9.64111C56.964 8.8392 55.9514 8.33689 54.8616 8.22827C53.7717 8.11966 52.6796 8.41223 51.79 9.05115C50.36 9.98115 48.9301 10.8911 47.5601 11.8911C47.2321 12.2156 46.802 12.4168 46.3428 12.4606C45.8835 12.5043 45.4233 12.388 45.04 12.1312C44.4274 11.7814 43.7719 11.5124 43.0901 11.3312C42.8523 11.2663 42.6401 11.1297 42.4827 10.9401C42.3252 10.7504 42.23 10.5168 42.21 10.2711C41.9 8.60112 41.48 6.95112 41.21 5.27112C41.1234 4.28692 40.7505 3.34961 40.1375 2.57483C39.5244 1.80004 38.6979 1.22169 37.76 0.911133H31.26C30.3207 1.26075 29.5004 1.87055 28.8948 2.66919C28.2892 3.46782 27.9233 4.42231 27.8401 5.42114C27.6201 6.98114 27.22 8.52117 26.95 10.0712C26.9314 10.3907 26.8091 10.6954 26.6016 10.9391C26.394 11.1827 26.1126 11.352 25.8 11.4211C25.2016 11.5681 24.6286 11.8042 24.1001 12.1212C23.7362 12.3836 23.2918 12.5102 22.8442 12.4791C22.3967 12.4481 21.9743 12.2613 21.6501 11.9512C20.2701 10.9512 18.8001 9.95116 17.3501 9.06116C16.4632 8.41467 15.3713 8.11304 14.2783 8.2124C13.1853 8.31177 12.1659 8.80538 11.4102 9.6012C10.4802 10.4912 9.57018 11.4112 8.68018 12.3312C7.88474 13.0868 7.39046 14.1054 7.28931 15.1979C7.18815 16.2903 7.48695 17.3823 8.13013 18.2711C9.19013 19.8911 10.2634 21.4979 11.3501 23.0912C11.5063 23.2812 11.5998 23.5149 11.6177 23.7603C11.6356 24.0056 11.5769 24.2505 11.45 24.4612C11.0631 25.2481 10.729 26.0598 10.45 26.8911C10.3816 27.1434 10.2378 27.3688 10.0376 27.5369C9.83737 27.7049 9.59041 27.8076 9.33008 27.8312C7.72008 28.1212 6.13001 28.5411 4.51001 28.7711C3.51125 28.8499 2.55598 29.2129 1.75684 29.8171C0.957689 30.4214 0.348024 31.2417 0 32.1812V38.6812C0.310562 39.6191 0.889034 40.4456 1.66382 41.0587C2.4386 41.6718 3.37591 42.0446 4.36011 42.1312C6.03011 42.3812 7.68011 42.8012 9.36011 43.1312C9.6057 43.1561 9.83805 43.2542 10.0271 43.413C10.2161 43.5717 10.3532 43.7835 10.4202 44.0211C10.7082 44.8751 11.042 45.713 11.4202 46.5311C11.5464 46.7408 11.6035 46.9849 11.5837 47.2289C11.564 47.4729 11.4683 47.7044 11.3101 47.8911C10.2034 49.5111 9.11337 51.1411 8.04004 52.7811C7.43159 53.6573 7.15564 54.7218 7.26196 55.7832C7.36828 56.8446 7.84997 57.8331 8.62012 58.5712C9.48012 59.4612 10.35 60.3212 11.23 61.1912C11.9761 62.0783 13.0377 62.641 14.1907 62.7604C15.3437 62.8798 16.4981 62.5466 17.4102 61.8312C18.9802 60.8312 20.5401 59.7812 22.0801 58.7112C22.276 58.5404 22.5212 58.4366 22.7803 58.415C23.0393 58.3935 23.2985 58.4552 23.52 58.5912C24.2385 58.9825 24.996 59.2975 25.78 59.5311C26.0907 59.6022 26.3698 59.7723 26.5754 60.0157C26.7811 60.2592 26.9022 60.563 26.9202 60.8812C27.2502 62.6912 27.63 64.5011 28 66.3011C28.1662 67.3847 28.718 68.372 29.554 69.0812C30.3899 69.7904 31.4539 70.1738 32.55 70.1611C33.69 70.1611 34.83 70.1611 35.98 70.1611C38.89 70.1611 40.5701 68.7611 41.1201 65.9211C41.4601 64.1411 41.8301 62.3612 42.1201 60.5812C42.1434 60.3637 42.2309 60.1582 42.3716 59.9907C42.5123 59.8233 42.6999 59.7015 42.9102 59.6411C43.6855 59.3777 44.4463 59.074 45.1899 58.7312C45.4041 58.6861 45.606 58.5952 45.7817 58.4648C45.9575 58.3345 46.1031 58.1676 46.2085 57.9758C46.3139 57.784 46.3768 57.5718 46.3926 57.3535C46.4084 57.1352 46.3767 56.9161 46.3 56.7112ZM86.75 62.8112C85.91 62.6812 85.08 62.4912 84.25 62.3212C83.9109 62.2697 83.5908 62.1319 83.3203 61.921C83.0498 61.7101 82.8381 61.4332 82.7056 61.1168C82.573 60.8005 82.5242 60.4553 82.5635 60.1146C82.6028 59.7739 82.7291 59.449 82.9302 59.1711C83.4802 58.3411 84.0501 57.5212 84.5801 56.6812C85.0645 55.9905 85.2862 55.1496 85.2056 54.3099C85.1249 53.4702 84.7471 52.687 84.1401 52.1012C83.6401 51.5712 83.1401 51.1011 82.5901 50.5511C81.9937 49.8219 81.1325 49.3588 80.1953 49.2632C79.2581 49.1676 78.3214 49.4473 77.5901 50.0411C76.7301 50.6011 75.89 51.1912 75.03 51.7412C74.7694 51.849 74.4903 51.9042 74.2083 51.9037C73.9262 51.9032 73.6469 51.847 73.3867 51.7383C73.1265 51.6296 72.8904 51.4704 72.6919 51.2701C72.4934 51.0698 72.3364 50.8323 72.23 50.5712C71.99 49.4612 71.8 48.3412 71.54 47.2312C71.3898 46.4294 70.9572 45.7079 70.3206 45.1979C69.6839 44.6878 68.8854 44.4229 68.0701 44.4512H65.4399C64.6264 44.4354 63.834 44.7094 63.2039 45.2241C62.5737 45.7389 62.1469 46.4609 62 47.2612C61.76 48.3412 61.5601 49.4311 61.3301 50.5211C61.2328 50.7931 61.0801 51.0419 60.8818 51.252C60.6836 51.462 60.4439 51.6287 60.178 51.7415C59.9121 51.8542 59.6257 51.9106 59.3369 51.9071C59.0481 51.9036 58.7631 51.8403 58.5 51.7212C57.5 51.1012 56.6101 50.4312 55.6401 49.8312C54.9734 49.3874 54.1731 49.1887 53.3762 49.2689C52.5793 49.3492 51.8349 49.7033 51.27 50.2711C50.63 50.8611 50.0102 51.4912 49.4102 52.1312C48.7954 52.7114 48.4142 53.4964 48.3386 54.3384C48.2631 55.1803 48.4983 56.0208 49 56.7012C49.58 57.6112 50.18 58.5211 50.8 59.4011C50.9439 59.5851 51.0308 59.8071 51.0503 60.0398C51.0698 60.2725 51.0213 60.5058 50.9102 60.7112C50.7202 61.1612 50.5401 61.6212 50.3801 62.0812L46.6201 62.8512C45.8123 62.9281 45.0584 63.2905 44.4939 63.8734C43.9294 64.4563 43.5911 65.2213 43.54 66.0311C43.54 66.9711 43.54 67.9112 43.54 68.8412C43.4882 69.7004 43.7603 70.5477 44.3027 71.2161C44.8452 71.8844 45.6185 72.3251 46.47 72.4512C47.53 72.6812 48.5901 72.8712 49.6501 73.1112C49.9193 73.2145 50.1643 73.3721 50.3699 73.5742C50.5755 73.7763 50.7373 74.0186 50.8452 74.286C50.9531 74.5534 51.0046 74.8401 50.9968 75.1283C50.9891 75.4165 50.9222 75.7 50.8 75.9612C50.2 76.9012 49.55 77.8012 48.96 78.7412C48.5009 79.414 48.2917 80.2261 48.3684 81.037C48.4451 81.8479 48.803 82.6064 49.3801 83.1812C49.9601 83.8012 50.5702 84.4012 51.1802 84.9812C51.7698 85.6065 52.5665 85.9959 53.4221 86.0769C54.2777 86.1579 55.1337 85.9248 55.8301 85.4211C56.7401 84.8311 57.63 84.2112 58.54 83.6212C58.7971 83.5097 59.0738 83.4505 59.354 83.447C59.6342 83.4436 59.9124 83.496 60.1721 83.6012C60.4318 83.7064 60.6679 83.8622 60.8667 84.0597C61.0655 84.2571 61.2231 84.4922 61.3301 84.7512C61.5701 85.8612 61.77 86.9812 62.02 88.1012C62.1688 88.9006 62.5961 89.6213 63.2258 90.1357C63.8556 90.6501 64.647 90.9249 65.46 90.9111H68.01C68.8537 90.9545 69.6839 90.686 70.3423 90.1567C71.0007 89.6274 71.4412 88.8744 71.5801 88.0411C71.8101 87.0411 71.99 85.9712 72.21 84.9412C72.2921 84.6386 72.4427 84.359 72.6499 84.1237C72.8571 83.8884 73.1155 83.7036 73.4053 83.5839C73.695 83.4641 74.0084 83.4124 74.3213 83.4327C74.6342 83.4531 74.9381 83.5449 75.21 83.7012C76.09 84.2812 76.9501 84.8812 77.8401 85.4512C78.5025 85.9243 79.3102 86.1494 80.1218 86.0873C80.9335 86.0251 81.6974 85.6797 82.28 85.1112C82.9865 84.4855 83.6544 83.8177 84.28 83.1112C84.8518 82.5308 85.2004 81.7672 85.2644 80.955C85.3284 80.1427 85.1039 79.334 84.6301 78.6711C84.0201 77.6711 83.36 76.7812 82.74 75.8212C82.5687 75.3132 82.5879 74.7604 82.7939 74.2655C83 73.7706 83.3789 73.3675 83.8601 73.1312C84.8601 72.9212 85.8 72.7011 86.78 72.5411C87.5124 72.46 88.2066 72.1727 88.782 71.7124C89.3573 71.2521 89.7902 70.6378 90.03 69.9412V65.3712C89.7871 64.6745 89.3485 64.0624 88.7668 63.6084C88.1852 63.1544 87.4849 62.8776 86.75 62.8112ZM86.1301 69.6012C84.7501 69.8512 83.39 70.1912 82 70.4412C81.6508 70.4829 81.3226 70.6295 81.0583 70.8616C80.7941 71.0936 80.6065 71.4003 80.52 71.7412C80.2255 72.7243 79.8267 73.673 79.3301 74.5712C79.1569 74.8633 79.0758 75.2008 79.0972 75.5397C79.1186 75.8786 79.2414 76.2032 79.45 76.4712C79.96 77.2112 80.45 77.9612 80.96 78.7312C82.57 81.2812 82.69 80.3411 80.51 82.6511C80.4348 82.7572 80.3372 82.8456 80.2241 82.9099C80.1111 82.9743 79.9854 83.0131 79.8557 83.0236C79.7261 83.034 79.5958 83.016 79.4739 82.9707C79.352 82.9254 79.2414 82.8539 79.1501 82.7612C77.9701 81.9412 76.7601 81.1712 75.5801 80.3612C75.3131 80.1511 74.9891 80.0262 74.6501 80.0031C74.3112 79.9799 73.9733 80.0594 73.6802 80.2312C72.7587 80.7378 71.7866 81.1467 70.78 81.4512C70.4649 81.5301 70.18 81.7003 69.9612 81.9404C69.7424 82.1806 69.5994 82.48 69.55 82.8011C69.37 83.6911 69.21 84.5912 69.01 85.4712C68.34 88.3112 69.1201 87.8611 65.8901 87.9111C65.7688 87.9295 65.6449 87.9222 65.5266 87.8893C65.4084 87.8564 65.2983 87.7989 65.2039 87.7205C65.1094 87.6421 65.0326 87.5446 64.9785 87.4344C64.9244 87.3243 64.8944 87.2038 64.8901 87.0812C64.6401 85.6712 64.32 84.2712 64.04 82.8612C63.9992 82.5401 63.866 82.2377 63.6565 81.991C63.447 81.7442 63.1703 81.5636 62.8601 81.4712C61.825 81.1484 60.821 80.7335 59.8601 80.2312C59.5807 80.0648 59.2577 79.9862 58.9331 80.0059C58.6085 80.0255 58.2973 80.1423 58.04 80.3412C57.29 80.8512 56.54 81.3412 55.78 81.8412C53.2 83.4812 54.1401 83.6012 51.8601 81.4412C51.7512 81.3691 51.6594 81.274 51.5913 81.1626C51.5233 81.0512 51.4806 80.9262 51.4663 80.7964C51.452 80.6666 51.4664 80.5352 51.5085 80.4116C51.5507 80.288 51.6194 80.1752 51.71 80.0812C52.53 78.9012 53.3001 77.6912 54.1001 76.5012C54.3109 76.2369 54.4369 75.915 54.4619 75.5778C54.4869 75.2406 54.4096 74.9037 54.24 74.6112C53.7425 73.6831 53.3372 72.7084 53.03 71.7012C52.9437 71.3721 52.7601 71.0767 52.5032 70.8536C52.2462 70.6306 51.928 70.4904 51.5901 70.4512C50.6501 70.2712 49.7 70.0812 48.76 69.8712C46.25 69.3112 46.51 69.8711 46.48 67.0411C46.4335 66.7787 46.4841 66.5082 46.6221 66.2802C46.76 66.0521 46.9759 65.8819 47.23 65.8011L51.5701 64.9111C51.9115 64.8881 52.2366 64.7563 52.4976 64.5349C52.7585 64.3135 52.9417 64.0143 53.02 63.6812C53.3411 62.6742 53.7493 61.6973 54.24 60.7612C54.4143 60.472 54.4946 60.1356 54.4695 59.7988C54.4444 59.462 54.3153 59.1415 54.1001 58.8812C53.5901 58.1312 53.1001 57.3812 52.5901 56.6112C51.0101 54.1412 50.93 55.0012 52.98 52.8212C53.0611 52.7033 53.1666 52.6042 53.2893 52.5305C53.412 52.4569 53.5492 52.4104 53.6914 52.3943C53.8336 52.3782 53.9775 52.3928 54.1135 52.4371C54.2496 52.4814 54.3745 52.5544 54.48 52.6511C55.62 53.4711 56.82 54.2112 57.97 55.0112C58.2341 55.2231 58.5569 55.3491 58.8948 55.3723C59.2326 55.3956 59.5694 55.3148 59.8601 55.1411C60.7897 54.6393 61.768 54.2339 62.78 53.9312C63.1081 53.8479 63.4035 53.668 63.6282 53.4148C63.8528 53.1616 63.9964 52.8469 64.04 52.5112C64.21 51.5912 64.3801 50.6712 64.5901 49.7512C65.2001 47.1012 64.5301 47.4012 67.5901 47.3812C67.8507 47.3588 68.1099 47.4393 68.3118 47.6057C68.5137 47.7721 68.6423 48.011 68.6702 48.2711C68.9202 49.6811 69.24 51.0812 69.51 52.4812C69.555 52.8312 69.7054 53.1591 69.9412 53.4216C70.1769 53.6842 70.487 53.8689 70.8301 53.9512C71.8116 54.25 72.76 54.6487 73.6602 55.1411C73.9379 55.3079 74.2584 55.3893 74.582 55.3751C74.9057 55.3609 75.218 55.2517 75.48 55.0612C76.24 54.5612 76.98 54.0611 77.75 53.5511C80.36 51.9011 79.41 51.7912 81.75 53.9912C81.8504 54.0637 81.9341 54.1571 81.9951 54.2649C82.0561 54.3727 82.0931 54.4925 82.1035 54.616C82.114 54.7394 82.0977 54.8637 82.0557 54.9802C82.0136 55.0968 81.9469 55.2028 81.8601 55.2911C81.0401 56.4611 80.28 57.6812 79.47 58.8612C79.2405 59.1381 79.1037 59.4799 79.0786 59.8386C79.0535 60.1974 79.1414 60.555 79.3301 60.8612C79.8175 61.7625 80.2128 62.7106 80.51 63.6912C80.5928 64.0205 80.7723 64.3175 81.0254 64.5438C81.2785 64.7702 81.5937 64.9155 81.9302 64.9612C82.7902 65.1312 83.65 65.3012 84.51 65.4912C87.4 66.1412 86.93 65.4012 86.99 68.5612C87.0083 68.687 87.0001 68.8153 86.9658 68.9377C86.9315 69.0602 86.8718 69.174 86.7908 69.272C86.7097 69.37 86.6092 69.4499 86.4954 69.5066C86.3816 69.5633 86.2571 69.5955 86.1301 69.6012ZM66.76 60.1312C65.2628 60.1312 63.7993 60.5752 62.5544 61.407C61.3096 62.2388 60.3393 63.421 59.7664 64.8042C59.1934 66.1874 59.0434 67.7095 59.3354 69.178C59.6275 70.6464 60.3485 71.9953 61.4072 73.054C62.4659 74.1126 63.8148 74.8336 65.2832 75.1257C66.7516 75.4178 68.2737 75.2679 69.657 74.6949C71.0402 74.122 72.2224 73.1517 73.0542 71.9069C73.886 70.662 74.3301 69.1984 74.3301 67.7012C74.3274 65.6943 73.5289 63.7704 72.1099 62.3513C70.6908 60.9322 68.7669 60.1339 66.76 60.1312ZM66.76 72.5211C65.8067 72.5211 64.8749 72.2385 64.0823 71.7089C63.2896 71.1792 62.6717 70.4264 62.3069 69.5457C61.9421 68.6649 61.8467 67.6959 62.0327 66.7609C62.2187 65.8259 62.6777 64.9671 63.3518 64.293C64.0259 63.6189 64.8848 63.1597 65.8198 62.9738C66.7548 62.7878 67.7238 62.8832 68.6045 63.248C69.4852 63.6129 70.2382 64.2307 70.7678 65.0233C71.2975 65.816 71.5801 66.7479 71.5801 67.7012C71.5801 68.9795 71.0721 70.2054 70.1682 71.1094C69.2643 72.0133 68.0384 72.5211 66.76 72.5211ZM34.76 21.5912C31.9911 21.5912 29.2845 22.4122 26.9822 23.9506C24.6799 25.4889 22.8853 27.6755 21.8257 30.2336C20.7661 32.7918 20.4889 35.6067 21.0291 38.3224C21.5692 41.0381 22.9027 43.5328 24.8606 45.4907C26.8185 47.4487 29.3131 48.782 32.0288 49.3221C34.7445 49.8623 37.5595 49.5851 40.1177 48.5255C42.6758 47.4659 44.8623 45.6714 46.4006 43.3691C47.939 41.0669 48.76 38.3601 48.76 35.5912C48.76 33.7485 48.3964 31.9239 47.6897 30.222C46.983 28.5202 45.9472 26.9746 44.6418 25.674C43.3365 24.3733 41.7873 23.3431 40.083 22.6425C38.3787 21.9418 36.5527 21.5846 34.71 21.5912H34.76ZM34.76 46.2711C32.6457 46.2711 30.579 45.6442 28.821 44.4696C27.0631 43.295 25.6929 41.6253 24.8838 39.672C24.0747 37.7187 23.8629 35.5693 24.2754 33.4956C24.6879 31.4219 25.7061 29.5172 27.2012 28.0222C28.6962 26.5272 30.6009 25.509 32.6746 25.0966C34.7482 24.6841 36.8975 24.8959 38.8508 25.705C40.8042 26.5141 42.4738 27.8841 43.6484 29.6421C44.8231 31.4001 45.45 33.4669 45.45 35.5812C45.4486 36.9889 45.1697 38.3825 44.6289 39.6821C44.0881 40.9818 43.296 42.1619 42.2983 43.1549C41.3006 44.148 40.1168 44.9344 38.8147 45.4691C37.5125 46.0039 36.1176 46.2764 34.71 46.2711H34.76Z" fill="#5C5C5C"/>
</svg>
