<svg width="81" height="90" viewBox="0 0 81 90" fill="none" xmlns="http://www.w3.org/2000/svg">
<path d="M38.0609 6.37C38.0305 6.65443 38.0591 6.94208 38.1449 7.21497C38.2307 7.48785 38.3718 7.74007 38.5595 7.95593C38.7472 8.17179 38.9775 8.34662 39.2358 8.46948C39.4941 8.59234 39.775 8.66066 40.0609 8.67004H40.1309C40.4159 8.66055 40.6959 8.59258 40.9534 8.47034C41.211 8.34809 41.4407 8.1741 41.6283 7.95935C41.8158 7.7446 41.9572 7.49362 42.0437 7.22192C42.1301 6.95023 42.1599 6.66366 42.1309 6.38C42.1309 5.82 42.1309 5.25995 42.1309 4.69995C42.1309 4.13995 42.1309 3.32 42.1309 2.63C42.1652 2.16321 42.093 1.6947 41.9198 1.25989C41.7465 0.825075 41.4768 0.435315 41.1309 0.119995L41.0009 0H39.0909L38.9609 0.140015C38.6706 0.408511 38.4378 0.732967 38.2762 1.09387C38.1147 1.45478 38.0278 1.84464 38.021 2.23999C38.021 2.91999 38.021 3.59999 38.021 4.23999C38.021 4.87999 38.0509 5.68 38.0609 6.37ZM78.1209 38.02H77.2509H73.4409C72.9418 38.0178 72.4599 38.2022 72.0898 38.5371C71.7197 38.872 71.4883 39.3331 71.4409 39.83C71.4014 40.0889 71.4167 40.3533 71.4859 40.606C71.5551 40.8586 71.6766 41.0939 71.8425 41.2966C72.0084 41.4993 72.2152 41.6649 72.4492 41.7826C72.6832 41.9003 72.9392 41.9676 73.2009 41.98C74.0311 42.0705 74.8658 42.1139 75.7009 42.11C76.5109 42.11 77.361 42.11 78.291 42C78.8127 41.9665 79.3005 41.7301 79.65 41.3413C79.9995 40.9525 80.183 40.4424 80.161 39.92C80.1401 39.3966 79.9148 38.9022 79.5333 38.5432C79.1518 38.1842 78.6447 37.9891 78.1209 38V38.02ZM6.69088 38.02H5.81087H3.02095H2.12093C1.85416 38.0038 1.58685 38.0413 1.3348 38.1301C1.08275 38.219 0.851029 38.3574 0.653401 38.5374C0.455772 38.7173 0.296236 38.935 0.184163 39.1776C0.072089 39.4202 0.00979869 39.6828 0.000935032 39.95C-0.00705427 40.2072 0.0362194 40.4635 0.128254 40.7039C0.220289 40.9442 0.359182 41.164 0.536946 41.3501C0.714709 41.5362 0.927775 41.6851 1.16365 41.7881C1.39953 41.8911 1.65361 41.9461 1.91097 41.95C2.72097 41.95 3.54089 42.01 4.33089 42.01C5.12089 42.01 6.04093 42.01 6.87093 41.95C7.13353 41.9488 7.39294 41.8924 7.63228 41.7843C7.87162 41.6762 8.08557 41.519 8.26009 41.3228C8.43461 41.1265 8.56581 40.8958 8.64522 40.6455C8.72463 40.3952 8.7504 40.1309 8.72091 39.87C8.68758 39.3572 8.45812 38.8769 8.08016 38.5287C7.70219 38.1805 7.20469 37.9912 6.69088 38V38.02ZM12.2009 14.92C13.2009 15.92 14.2009 16.92 15.2009 17.86C15.5636 18.2357 16.0589 18.4546 16.5809 18.47C17.0734 18.4592 17.5428 18.2587 17.8909 17.91C18.0909 17.7351 18.2541 17.5221 18.3708 17.2834C18.4876 17.0448 18.5555 16.7853 18.5709 16.52C18.5767 15.9996 18.3795 15.4973 18.021 15.12C17.101 14.12 16.1209 13.19 15.1809 12.26L14.531 11.63C14.1662 11.2834 13.684 11.0869 13.1809 11.08H13.1209C12.7482 11.0886 12.3858 11.2045 12.0772 11.4138C11.7686 11.6231 11.5269 11.9169 11.3809 12.26C11.2091 12.6201 11.1543 13.0248 11.2242 13.4176C11.2941 13.8104 11.4854 14.1714 11.771 14.45L12.2009 14.92ZM63.5909 18.46C64.2032 18.4261 64.7777 18.1532 65.1909 17.7C65.9009 17.01 66.6009 16.3 67.3009 15.6L68.3009 14.6C68.5213 14.4227 68.7 14.1991 68.8244 13.9451C68.9488 13.691 69.016 13.4128 69.021 13.13C69.0376 12.734 68.9362 12.3419 68.7297 12.0037C68.5232 11.6654 68.2208 11.3961 67.8609 11.23C67.5993 11.1143 67.317 11.0532 67.031 11.05C66.5202 11.0626 66.0336 11.2701 65.671 11.63C64.381 12.87 63.3409 13.91 62.3709 14.9C62.1634 15.0824 61.9959 15.3058 61.879 15.5562C61.7621 15.8065 61.6983 16.0784 61.6917 16.3546C61.6852 16.6308 61.7359 16.9055 61.8408 17.1611C61.9456 17.4168 62.1022 17.6479 62.3009 17.84C62.633 18.2078 63.0962 18.4304 63.5909 18.46ZM16.421 61.5699H16.3309H16.2509H16.161C15.9218 61.6093 15.6955 61.7054 15.5009 61.85C14.0336 63.0423 12.6932 64.3827 11.5009 65.85C11.3552 66.0375 11.2486 66.2526 11.1877 66.4822C11.1268 66.7118 11.1127 66.9513 11.1463 67.1864C11.1799 67.4215 11.2605 67.6475 11.3833 67.8508C11.506 68.0542 11.6685 68.2307 11.8609 68.37C12.2145 68.7016 12.6765 68.8935 13.161 68.91C13.5881 68.9098 13.9977 68.7408 14.3009 68.4399C15.7409 67.1099 17.0709 65.7301 18.0709 64.6801C18.3441 64.3953 18.5113 64.0252 18.544 63.632C18.5768 63.2387 18.4733 62.8461 18.2509 62.52C18.0548 62.2163 17.7828 61.9688 17.4619 61.8022C17.141 61.6357 16.7823 61.5556 16.421 61.5699ZM65.8609 63L65.151 62.3C64.9451 62.0852 64.6984 61.9134 64.4254 61.7949C64.1524 61.6765 63.8584 61.6136 63.5609 61.61C63.2025 61.6247 62.8548 61.7355 62.5539 61.9308C62.2531 62.1261 62.0102 62.3986 61.8509 62.72C61.649 63.0882 61.5776 63.514 61.6484 63.928C61.7192 64.342 61.928 64.7198 62.2409 65C63.3009 66.09 64.3809 67.17 65.4509 68.22C65.8694 68.6701 66.447 68.9392 67.0609 68.97C67.306 68.966 67.548 68.9136 67.7728 68.8158C67.9976 68.718 68.2009 68.5767 68.3709 68.4C68.5712 68.2078 68.7292 67.9761 68.835 67.7195C68.9409 67.4629 68.9921 67.187 68.9856 66.9095C68.979 66.6321 68.9147 66.3591 68.7968 66.1078C68.679 65.8565 68.51 65.6324 68.3009 65.45C67.5209 64.59 66.6909 63.77 65.8609 63ZM63.0009 46.13C63.1216 45.1614 63.1816 44.1861 63.1809 43.21C63.1883 37.4679 61.0596 31.9283 57.2088 27.6688C53.3581 23.4093 48.0607 20.7344 42.347 20.1644C36.6333 19.5944 30.9118 21.1701 26.2955 24.585C21.6792 27.9998 18.4981 33.0096 17.3709 38.64C16.6954 41.8994 16.7355 45.2665 17.4882 48.5089C18.241 51.7513 19.6885 54.7917 21.7309 57.42C23.4032 59.5649 25.433 61.4051 27.7309 62.86C28.4595 63.2819 29.0583 63.8958 29.4621 64.6346C29.8659 65.3735 30.0593 66.209 30.021 67.05C30.021 68.39 30.021 69.71 30.021 70.96C30.021 71.36 29.9509 71.52 29.6809 71.67C29.3515 71.8473 29.0613 72.0892 28.8276 72.3813C28.5939 72.6735 28.4215 73.0097 28.3209 73.37C27.8747 74.7622 27.917 76.2651 28.4409 77.63C28.5609 77.92 28.5709 77.99 28.5109 78.12C27.9626 79.381 27.8534 80.7896 28.2009 82.12C28.3311 82.7755 28.6602 83.3749 29.1434 83.8365C29.6265 84.2982 30.2403 84.5997 30.901 84.7C31.4355 84.7954 31.978 84.839 32.521 84.83H34.2109C34.252 84.8046 34.3003 84.7935 34.3483 84.7983C34.3964 84.8031 34.4414 84.8236 34.4766 84.8566C34.5119 84.8895 34.5353 84.9332 34.5433 84.9808C34.5513 85.0284 34.5435 85.0773 34.521 85.12V85.41C34.4864 86.0787 34.5233 86.7492 34.6309 87.41C34.7517 88.1342 35.1255 88.7919 35.6859 89.2662C36.2462 89.7405 36.9567 90.0005 37.6909 90H42.4309C43.1779 90.0153 43.905 89.7577 44.4757 89.2754C45.0464 88.7931 45.4216 88.1192 45.531 87.38C45.6379 86.7662 45.6714 86.1418 45.6309 85.52V85.12C45.6097 85.0837 45.6011 85.0415 45.6064 84.9998C45.6118 84.9581 45.6308 84.9193 45.6605 84.8895C45.6902 84.8598 45.729 84.8408 45.7707 84.8354C45.8124 84.8301 45.8547 84.8387 45.8909 84.86H47.151H48.3909C49.1869 84.8987 49.972 84.6639 50.616 84.1946C51.26 83.7252 51.724 83.0496 51.9309 82.28C52.2955 80.921 52.2006 79.4796 51.661 78.1801C51.6249 78.1196 51.6058 78.0504 51.6058 77.98C51.6058 77.9096 51.6249 77.8405 51.661 77.78C52.1632 76.6107 52.289 75.314 52.021 74.0699C51.9708 73.5758 51.8042 73.1007 51.5347 72.6835C51.2653 72.2663 50.9007 71.919 50.4709 71.67C50.3543 71.6104 50.2596 71.5155 50.2003 71.3987C50.141 71.2819 50.1203 71.1493 50.1409 71.02V70.4C50.1409 69.51 50.1409 68.5901 50.1409 67.6801C50.0356 66.6572 50.2381 65.6262 50.7227 64.7192C51.2074 63.8123 51.952 63.0708 52.8609 62.59C54.0554 61.8432 55.1595 60.9607 56.151 59.96C59.9033 56.3662 62.3283 51.6079 63.031 46.46C63.0377 46.3399 63.0343 46.2195 63.021 46.1L63.0009 46.13ZM42.2609 85.8199C42.2801 86.1263 42.2801 86.4336 42.2609 86.74C42.0786 86.7675 41.8932 86.7675 41.7109 86.74H38.1809C37.9709 86.74 37.921 86.74 37.911 86.74C37.8892 86.6615 37.8892 86.5785 37.911 86.5V85.61C37.8946 85.3736 37.8946 85.1364 37.911 84.9H41.2509H42.0009H42.0909C42.1564 84.8826 42.2254 84.8826 42.291 84.9C42.291 84.9 42.291 84.9601 42.291 85.1801L42.2609 85.8199ZM48.651 81.47C48.3224 81.5391 47.9859 81.5627 47.651 81.54H32.0609C31.8686 81.5682 31.6732 81.5682 31.4809 81.54C31.4236 81.349 31.4033 81.1486 31.421 80.95C31.3815 80.5587 31.4051 80.1638 31.4909 79.78C31.8679 79.6944 32.2558 79.6673 32.6409 79.7H48.0109C48.2421 79.6886 48.4738 79.7055 48.7009 79.75C48.7551 79.9791 48.7754 80.2149 48.7609 80.45C48.7688 80.7823 48.7386 81.1145 48.671 81.4399L48.651 81.47ZM48.651 76.22C48.651 76.22 48.5409 76.3 48.2609 76.3H31.9809C31.7986 76.3275 31.6132 76.3275 31.4309 76.3C31.3739 76.1192 31.3536 75.9288 31.3709 75.74C31.3267 75.3389 31.3503 74.9333 31.4409 74.54C31.8381 74.4544 32.2459 74.4274 32.651 74.46H47.8609C48.1158 74.4468 48.3713 74.467 48.6209 74.52C48.6826 74.7751 48.7062 75.038 48.6909 75.3V75.5C48.6809 75.6432 48.6809 75.7869 48.6909 75.9301C48.7089 76.0169 48.702 76.1069 48.671 76.1899L48.651 76.22ZM41.5609 71.16H38.2409C38.2409 68.86 38.2409 63.8101 38.2409 52.4301H41.5609C41.5309 63.7801 41.5409 68.83 41.5809 71.13L41.5609 71.16ZM59.9609 45.22C59.8344 45.4329 59.7464 45.6666 59.7009 45.91C59.6954 45.9833 59.6954 46.0568 59.7009 46.13C59.7053 46.1632 59.7053 46.1968 59.7009 46.23C59.3576 48.4842 58.6376 50.6647 57.5709 52.6801C55.9668 55.6721 53.6221 58.2027 50.7609 60.03C50.4709 60.22 50.1909 60.42 49.9309 60.63C48.4043 61.7689 47.3392 63.4197 46.9309 65.28C46.7848 66.0005 46.7212 66.7351 46.7409 67.47C46.7409 67.97 46.7409 68.47 46.7409 68.98C46.7409 69.49 46.7409 70.22 46.7409 70.85C46.7606 70.9456 46.7606 71.0443 46.7409 71.14C46.645 71.1564 46.5469 71.1564 46.4509 71.14H44.671C44.671 68.38 44.671 61.72 44.671 52.41H47.3609C47.973 52.4388 48.5847 52.3431 49.1588 52.1287C49.7328 51.9142 50.2574 51.5856 50.7008 51.1626C51.1441 50.7396 51.4971 50.231 51.7382 49.6676C51.9794 49.1042 52.1037 48.4978 52.1037 47.885C52.1037 47.2722 51.9794 46.6658 51.7382 46.1024C51.4971 45.5391 51.1441 45.0304 50.7008 44.6074C50.2574 44.1844 49.7328 43.8558 49.1588 43.6414C48.5847 43.4269 47.973 43.3312 47.3609 43.36H46.1009C44.9063 43.3652 43.7616 43.8401 42.914 44.682C42.0665 45.524 41.584 46.6654 41.5709 47.86V49.29H38.2209C38.2209 48.82 38.2209 48.35 38.2209 47.86C38.213 46.6638 37.7322 45.5192 36.8835 44.6761C36.0348 43.8331 34.8871 43.36 33.6909 43.36H32.4309C31.8187 43.3312 31.2072 43.4269 30.6331 43.6414C30.0591 43.8558 29.5344 44.1844 29.091 44.6074C28.6476 45.0304 28.2948 45.5391 28.0537 46.1024C27.8125 46.6658 27.6882 47.2722 27.6882 47.885C27.6882 48.4978 27.8125 49.1042 28.0537 49.6676C28.2948 50.231 28.6476 50.7396 29.091 51.1626C29.5344 51.5856 30.0591 51.9142 30.6331 52.1287C31.2072 52.3431 31.8187 52.4388 32.4309 52.41H35.1209C35.1209 61.71 35.1209 68.41 35.1209 71.14H34.9309H33.8109H33.7409C33.4309 71.14 33.3609 71.0799 33.3609 71.0699C33.3609 71.0599 33.2909 70.99 33.3009 70.63V70.22C33.3807 68.787 33.3607 67.3502 33.2409 65.92C33.2409 65.69 33.1809 65.47 33.1309 65.25C32.7443 63.3617 31.6765 61.6817 30.1309 60.53C29.7809 60.25 29.4009 59.98 29.0009 59.71C25.6749 57.4676 23.1071 54.2695 21.6366 50.5375C20.166 46.8055 19.8619 42.7152 20.7642 38.8068C21.6666 34.8983 23.7331 31.3554 26.6909 28.6458C29.6486 25.9361 33.3585 24.1873 37.3309 23.63C37.7139 23.5821 38.0804 23.4451 38.401 23.23C38.951 23.23 39.5009 23.16 40.0609 23.16C40.6209 23.16 41.1509 23.16 41.6909 23.23C41.8367 23.3432 41.9985 23.4342 42.171 23.5C42.3604 23.5571 42.5544 23.5973 42.7509 23.62H42.8409C47.0955 24.2098 51.0398 26.1767 54.0709 29.22C57.16 32.273 59.1384 36.272 59.6909 40.58C59.7251 40.9309 59.8306 41.2712 60.0009 41.58C60.0009 42.12 60.0709 42.66 60.0709 43.21C60.0753 43.8711 60.0453 44.532 59.9809 45.1899L59.9609 45.22ZM44.7009 49.3101V47.9C44.7061 47.5286 44.8567 47.1741 45.1203 46.9124C45.3839 46.6506 45.7395 46.5026 46.1109 46.5H47.3709C47.5654 46.4836 47.7611 46.5076 47.9458 46.5708C48.1304 46.634 48.3 46.7348 48.4437 46.8668C48.5874 46.9989 48.7021 47.1594 48.7806 47.3381C48.8591 47.5168 48.8996 47.7099 48.8996 47.905C48.8996 48.1002 48.8591 48.2932 48.7806 48.4719C48.7021 48.6506 48.5874 48.811 48.4437 48.9431C48.3 49.0752 48.1304 49.176 47.9458 49.2391C47.7611 49.3023 47.5654 49.3265 47.3709 49.3101H44.7009ZM35.1009 49.3101H32.4309C32.2364 49.3265 32.0407 49.3023 31.856 49.2391C31.6714 49.176 31.5018 49.0752 31.3581 48.9431C31.2144 48.811 31.0998 48.6506 31.0213 48.4719C30.9429 48.2932 30.9023 48.1002 30.9023 47.905C30.9023 47.7099 30.9429 47.5168 31.0213 47.3381C31.0998 47.1594 31.2144 46.9989 31.3581 46.8668C31.5018 46.7348 31.6714 46.634 31.856 46.5708C32.0407 46.5076 32.2364 46.4836 32.4309 46.5H33.6909C34.0623 46.5026 34.418 46.6506 34.6816 46.9124C34.9452 47.1741 35.0957 47.5286 35.1009 47.9V49.3101Z" fill="#5C5C5C"/>
</svg>
