<svg id="Bahan_copy" viewBox="0 0 64 64" xmlns="http://www.w3.org/2000/svg" data-name="Bahan copy"><g fill="rgb(0,0,0)"><path d="m36.51355 41.253c5.873-4.02722 2.98836-13.49443-4.23344-13.47755a7.4018 7.4018 0 0 0 -4.23586 13.47609c-6.26774 1.99616-9.61733 7.26392-9.07242 13.69867a2.6913 2.6913 0 0 0 2.68833 2.68847h21.23925a2.69153 2.69153 0 0 0 2.68848-2.68847v-2.07228a12.41909 12.41909 0 0 0 -9.07434-11.62493zm-9.64148-6.0694c.22678-7.14681 10.58948-7.14614 10.81543.00012-.2273 7.14633-10.58943 7.14365-10.81543-.00013zm16.71582 19.7666a.68892.68892 0 0 1 -.68848.68847h-21.23925a.68892.68892 0 0 1 -.68848-.68847v-2.07227c-.07875-5.8336 5.553-10.40041 11.30864-10.27237 6.23531-.00009 11.30757 4.60831 11.30757 10.27237z"/><path d="m53.91351 30.69037a5.52065 5.52065 0 1 0 -7.1997-.005 9.19693 9.19693 0 0 0 -6.08081 9.7717 2.19428 2.19428 0 0 0 2.19125 2.19234h14.98434a2.19453 2.19453 0 0 0 2.19141-2.19241 9.202 9.202 0 0 0 -6.08649-9.76663zm-3.5971-7.69916a3.52073 3.52073 0 0 1 -.00011 7.041 3.52073 3.52073 0 0 1 .00011-7.041zm7.68359 17.46579a.19192.19192 0 0 1 -.19141.19238h-14.98437a.19192.19192 0 0 1 -.19141-.19238c-.93337-11.28472 16.39474-11.06908 15.36719 0z"/><path d="m23.36719 40.457a9.20194 9.20194 0 0 0 -6.08661-9.76663 5.50538 5.50538 0 0 0 1.92352-4.17868c-.23034-7.29145-10.80893-7.2977-11.041.00012a5.50566 5.50566 0 0 0 1.9179 4.17361 9.19693 9.19693 0 0 0 -6.08083 9.77165 2.19428 2.19428 0 0 0 2.19125 2.19234h14.98436a2.19453 2.19453 0 0 0 2.19141-2.19241zm-9.6836-17.46582a3.52073 3.52073 0 0 1 -.0001 7.041 3.52073 3.52073 0 0 1 .0001-7.04097zm-7.68359 17.46582c-.93337-11.28475 16.39474-11.06911 15.36715 0a.19185.19185 0 0 1 -.19137.19233h-14.98437a.19192.19192 0 0 1 -.19141-.19233z"/><path d="m23.48047 15.2793 3.39353 2.44433-1.2998 3.999a1.97432 1.97432 0 0 0 3.03808 2.208l3.3721-2.47263 3.40332 2.47363a1.97468 1.97468 0 0 0 3.03808-2.208l-1.30859-3.97263 3.40234-2.47071a1.9749 1.9749 0 0 0 -1.16015-3.57229l-4.18165.01758-1.2998-4a1.97463 1.97463 0 0 0 -3.75586 0l-1.27539 3.98242h-4.206a1.98384 1.98384 0 0 0 -1.16021 3.5713zm5.36621-1.5713a1.96742 1.96742 0 0 0 1.87793-1.36524l1.24805-4.00683 1.30273 4.00586a1.96706 1.96706 0 0 0 1.87793 1.36621l4.19043-.0459-3.40137 2.4707a1.9706 1.9706 0 0 0 -.71875 2.208l1.33985 3.97266c-5.2726-3.78937-3.86708-3.82033-9.08691.02742l1.2998-4.00106a1.96873 1.96873 0 0 0 -.71778-2.206l-3.418-2.42578z"/></g></svg>