<?xml version="1.0" encoding="UTF-8"?>
<!DOCTYPE svg PUBLIC "-//W3C//DTD SVG 1.1//EN" "http://www.w3.org/Graphics/SVG/1.1/DTD/svg11.dtd">
<svg xmlns="http://www.w3.org/2000/svg" xml:space="preserve" width="250.064mm" height="28.9847mm" version="1.1" style="shape-rendering:geometricPrecision; text-rendering:geometricPrecision; image-rendering:optimizeQuality; fill-rule:evenodd; clip-rule:evenodd"
viewBox="0 0 25130.63 2912.87"
 xmlns:xlink="http://www.w3.org/1999/xlink">
 <defs>
  <style type="text/css">
   <![CDATA[
    <!-- .fil0 {fill:#003366;fill-rule:nonzero} -->
    .fil0 {fill:#495057;fill-rule:nonzero}
   ]]>
  </style>
 </defs>
 <g id="Ebene_x0020_1">
  <metadata id="SITEFORUM_0-Layer"/>
  <path class="fil0" d="M870.38 1957.58l-5.4 18.92c-36.51,127.89 -28.01,228.38 26.18,301.46 53.33,73.74 144.04,110.28 271.29,110.28 151.38,0 273.67,-26.1 365.4,-77.64 91.7,-51.55 151.99,-127.89 180.68,-228.39 41.16,-144.2 -91.05,-257.09 -396.64,-338.66 -70.76,-19.58 -125.39,-33.93 -162.87,-44.37 -343.62,-99.18 -562.81,-211.42 -657.09,-336.05 -94.09,-125.28 -109.42,-300.15 -44.97,-525.93 70.6,-247.31 235.63,-448.29 495.48,-604.24 259.66,-155.3 567.64,-232.95 922.61,-232.95 377.15,0 642.57,69.16 795.39,208.15 152.82,139 190.06,344.53 112.2,617.3l-13.6 47.63 -783.68 0 3.73 -13.05c33.15,-116.14 28.29,-204.24 -15.27,-264.27 -43.36,-60.69 -122.89,-90.7 -239.03,-90.7 -113.54,0 -211.88,26.75 -296.33,80.26 -83.78,53.51 -138.3,123.33 -163.08,210.12 -40.23,140.94 131.05,261.01 514.86,358.88 102.36,25.45 181.88,46.33 238.37,63.29 239.21,67.21 400.97,165.75 485.46,294.94 83.84,129.2 96.1,298.87 36.49,507.67 -82.15,287.76 -256.22,508.97 -521.85,662.31 -265.62,153.34 -608.65,230.34 -1028.87,230.34 -382.39,0 -650.12,-81.56 -803.88,-244.69 -153.76,-163.14 -185.98,-400 -97.32,-710.6l781.72 0z"/>
  <polygon id="1" class="fil0" points="2740.95,2865.89 3545.61,46.98 4324.72,46.98 3520.06,2865.89 "/>
  <polygon id="2" class="fil0" points="4671.11,2865.89 5315.96,606.85 4462.45,606.85 4622.27,46.98 7112.3,46.98 6952.49,606.85 6098.98,606.85 5454.14,2865.89 "/>
  <polygon id="3" class="fil0" points="6620.2,2865.89 7424.86,46.98 9504.46,46.98 9350.24,587.27 8030.17,587.27 7865.89,1162.8 9123.31,1162.8 8970.2,1699.17 7712.78,1699.17 7540.67,2302.11 8899.23,2302.11 8738.3,2865.89 "/>
  <polygon id="4" class="fil0" points="9197.03,2865.89 10001.69,46.98 11978.83,46.98 11825.73,583.35 10627.69,583.35 10441.06,1237.19 11552.96,1237.19 11400.97,1769.65 10289.07,1769.65 9976.14,2865.89 "/>
  <path id="5" class="fil0" d="M11854.48 1456.44c130.95,-458.73 359.42,-815.66 685.25,-1070.14 325.35,-255.14 715.99,-382.39 1171.46,-382.39 453.5,0 770.85,127.25 950.54,382.39 180.54,254.48 205.24,611.41 74.3,1070.14 -130.57,457.41 -359.04,814.35 -685.61,1071.45 -325.73,256.44 -716.09,384.98 -1169.59,384.98 -454.17,0 -771.13,-128.55 -951.77,-384.98 -180.44,-257.1 -205.14,-614.04 -74.58,-1071.45zm807.45 -3.27c-83.07,291.03 -91.96,509.62 -27.52,656.44 64.46,146.82 202.16,219.9 412.27,219.9 209.47,0 387.59,-73.08 534.55,-219.9 146.96,-146.82 262.22,-365.41 345.29,-656.44 83.26,-291.68 92.99,-510.93 29.85,-657.74 -63.15,-146.83 -199.55,-219.91 -409.01,-219.91 -210.11,0 -389.73,73.74 -538.18,221.21 -148.26,146.81 -264.36,366.06 -347.25,656.44z"/>
  <path id="6" class="fil0" d="M15993.21 1260.68l307.99 0c177.49,0 309.57,-26.11 394.94,-78.31 86.03,-52.21 147.34,-143.55 184.59,-274.06 33.9,-118.76 22.87,-203.59 -33.54,-255.13 -55.76,-51.54 -167.07,-77.65 -332.81,-77.65l-325.61 0 -195.58 685.16zm-1229.49 1605.21l804.65 -2818.91 1273.08 0c349.1,0 594.09,60.69 735.44,182.7 142.2,121.37 178.69,302.12 110.34,541.6 -55.88,195.76 -158.38,353.67 -307.96,473.08 -148.75,118.76 -333.58,192.5 -554.31,220.56l-4.28 15c156.6,0 270.16,31.97 339.81,96.57 70.3,64.61 104.73,170.31 102.9,318.44 0.75,43.06 -15.15,174.22 -46.23,392.81 -31.08,218.6 -46.22,411.09 -45.62,578.14l-841.75 0c14.78,-136.38 36.64,-292.99 66.9,-469.81 30.06,-176.19 46.81,-285.16 50.71,-326.26 9.95,-105.71 -7.79,-180.75 -53.19,-225.13 -45.22,-45.01 -127.63,-67.2 -247.69,-67.2l-300.82 0 -310.69 1088.41 -771.28 0z"/>
  <path id="7" class="fil0" d="M18331.82 46.98l790.86 0 -479.44 1679.6c-58.86,206.19 -57.51,361.49 4.68,465.89 62.22,104.41 183.69,156.6 365.1,156.6 181.4,0 336.49,-54.15 466.6,-162.47 129.45,-108.32 222.82,-261.66 279.44,-460.02l479.44 -1679.6 755.63 0 -499.56 1750.07c-103.19,361.5 -299.62,638.18 -589.11,829.36 -290.12,191.19 -657.29,286.46 -1103.62,286.46 -426.75,0 -720.87,-96.58 -881.54,-290.38 -160.67,-193.8 -186.38,-480.91 -77.6,-861.98l489.13 -1713.53z"/>
  <polygon id="8" class="fil0" points="20678.2,2865.89 21482.86,46.98 22701.12,46.98 22656.11,1864.26 23608.79,46.98 24826.4,46.98 24021.74,2865.89 23297.44,2865.89 23941.16,610.76 22676.23,2865.89 21966.94,2865.89 21984.71,606.85 21339.86,2865.89 "/>
  <path class="fil0" d="M24826.09 2261.85c88.15,0.33 161.28,32.47 219.04,96.27 57.78,63.94 85.5,138.59 83.03,223.78 -1.73,59.54 -18.08,114.12 -49.08,163.75 -30.83,49.76 -70.6,87.82 -119.14,114.32 -48.54,26.48 -99.44,39.56 -152.36,39.35 -88.15,-0.33 -161.27,-32.32 -219.04,-96.12 -57.79,-63.65 -85.52,-138.3 -83.04,-223.65 1.74,-59.68 18.11,-114.41 49.1,-164.03 30.82,-49.76 70.59,-87.81 119.14,-114.31 48.54,-26.49 99.43,-39.57 152.35,-39.36zm-1.53 52.75c-74.23,-0.27 -137.74,27.02 -190.71,82.05 -49.08,51.14 -74.75,112.17 -76.81,183.11 -2.22,76.4 23.07,140.8 76.02,193.48 48.93,48.63 107.67,73.07 176.05,73.33 73.9,0.27 137.41,-27.17 190.72,-82.19 49.08,-50.71 74.73,-111.6 76.79,-182.68 2.22,-76.25 -23.05,-140.8 -76.01,-193.33 -48.93,-48.91 -107.5,-73.5 -176.05,-73.76zm-149.94 441.48l9.95 -342.52 115.8 0.43c39.52,0.15 67.61,3.29 84.26,9.55 16.66,6.26 30.27,16.98 40.82,32.31 10.73,15.18 15.74,32.35 15.18,51.52 -0.76,26.38 -10.18,48.55 -28.39,66.36 -18.22,17.81 -41.18,27.67 -69.09,29.88 12.22,5.38 22,11.9 29.16,19.42 13.67,14.61 28.83,36.87 45.67,66.78l37.38 67.33 -65.28 -0.25 -28.16 -54.02c-21.32,-41.45 -38.75,-67.77 -52.18,-79.06 -10.24,-8.4 -24.89,-12.64 -43.97,-12.71l-32.3 -0.12 -4.22 145.31 -54.63 -0.2zm60.24 -192.68l65.62 0.25c29.39,0.11 50.48,-4.28 62.93,-13.02 12.45,-8.75 18.85,-21.7 19.35,-38.71 0.31,-10.95 -2.51,-20.48 -8.44,-28.72 -5.96,-8.1 -13.7,-13.9 -23.4,-17.26 -9.53,-3.35 -26.82,-5.14 -51.91,-5.24l-61.17 -0.22 -2.98 102.92z"/>
 </g>
</svg>
